<svg width="48" height="48" viewBox="0 0 48 48" fill="none" xmlns="http://www.w3.org/2000/svg">
<path d="M38.0691 0C35.4361 0.00269316 32.9117 0.952684 31.0499 2.64154C29.1881 4.33041 28.1407 6.62023 28.1379 9.00867V15.0142H19.8621V9.00867C19.8487 6.62745 18.7964 4.34793 16.9355 2.66845C15.0745 0.988969 12.5562 0.0461743 9.93107 0.0461743C7.30596 0.0461743 4.78763 0.988969 2.92666 2.66845C1.0657 4.34793 0.013454 6.62745 0 9.00867V39.0376C0.013454 41.4187 1.0657 43.6982 2.92666 45.3776C4.78763 47.0571 7.30596 48 9.93107 48C12.5562 48 15.0745 47.0571 16.9355 45.3776C18.7964 43.6982 19.8487 41.4187 19.8621 39.0376V36.0346L16.5517 34.5331V39.0376C16.5517 40.2254 16.1634 41.3866 15.4359 42.3742C14.7084 43.3619 13.6743 44.1315 12.4646 44.5862C11.2547 45.0406 9.9235 45.1596 8.63918 44.9279C7.35488 44.696 6.17516 44.1242 5.24924 43.2842C4.32332 42.4443 3.69275 41.374 3.43731 40.2091C3.1819 39.0439 3.31303 37.8364 3.81418 36.739C4.31534 35.6417 5.16399 34.7035 6.25282 34.0437C7.34162 33.3838 8.62172 33.0317 9.9312 33.0317H38.0691C39.3786 33.0317 40.6587 33.3838 41.7473 34.0439C42.8361 34.7038 43.6847 35.6417 44.1859 36.7392C44.687 37.8367 44.8182 39.0442 44.5626 40.2091C44.3072 41.3743 43.6767 42.4443 42.7506 43.2842C41.8248 44.1242 40.6451 44.6962 39.3606 44.9279C38.0764 45.1596 36.7452 45.0406 35.5353 44.5862C34.3256 44.1315 33.2916 43.3619 32.564 42.3742C31.8367 41.3866 31.4483 40.2254 31.4483 39.0376V36.0346L28.1379 34.5331V39.0376C28.1514 41.4187 29.2035 43.6982 31.0645 45.3776C32.9256 47.0571 35.444 48 38.0688 48C40.6939 48 43.2123 47.0571 45.0733 45.3776C46.9344 43.6982 47.9864 41.4187 48 39.0376V9.00867C47.9971 6.62027 46.9498 4.33048 45.0879 2.64163C43.2264 0.952774 40.702 0.00275578 38.0691 0ZM31.4483 9.00867C31.4483 7.82081 31.8364 6.65963 32.564 5.67196C33.2916 4.68429 34.3254 3.91448 35.5353 3.45987C36.7449 3.00529 38.0761 2.88631 39.3606 3.11802C40.6449 3.34972 41.8245 3.9217 42.7506 4.76161C43.6767 5.60153 44.3072 6.67166 44.5626 7.83667C44.8182 9.00168 44.687 10.2093 44.1859 11.3067C43.6847 12.4041 42.8361 13.3421 41.7475 14.002C40.6587 14.662 39.3786 15.0142 38.0691 15.0142H31.4483V9.00867ZM9.9312 3.0029C11.6865 3.00477 13.3693 3.63813 14.6104 4.76403C15.8516 5.88992 16.5497 7.41643 16.5517 9.00867V15.0142H9.9312C9.05826 15.0192 8.19286 14.8675 7.3848 14.5679C6.57674 14.2683 5.84195 13.8267 5.22276 13.2686C4.60354 12.7104 4.11212 12.0467 3.7768 11.3155C3.44148 10.5845 3.26884 9.80039 3.26884 9.00855C3.26884 8.21668 3.44148 7.43264 3.7768 6.70152C4.11212 5.97041 4.60354 5.30668 5.22276 4.7485C5.84195 4.19035 6.57674 3.74876 7.3848 3.44917C8.19286 3.14959 9.05826 2.99793 9.9312 3.0029ZM38.0691 30.0283H9.9312C7.48685 30.0264 5.1283 30.8455 3.3104 32.3278V15.7175C5.12833 17.1997 7.48688 18.0188 9.9312 18.0168H38.0691C40.5134 18.0187 42.8719 17.1996 44.6896 15.7175V32.3278C42.8719 30.8455 40.5134 30.0264 38.0691 30.0283Z" fill="white"/>
</svg>
